<mxfile host="app.diagrams.net" agent="Mozilla/5.0 (X11; Linux x86_64) AppleWebKit/537.36 (KHTML, like Gecko) Chrome/129.0.0.0 Safari/537.36" version="24.7.17">
  <diagram id="C5RBs43oDa-KdzZeNtuy" name="Page-1">
    <mxGraphModel dx="1434" dy="750" grid="1" gridSize="10" guides="1" tooltips="1" connect="1" arrows="1" fold="1" page="1" pageScale="1" pageWidth="827" pageHeight="1169" math="0" shadow="0">
      <root>
        <mxCell id="WIyWlLk6GJQsqaUBKTNV-0" />
        <mxCell id="WIyWlLk6GJQsqaUBKTNV-1" parent="WIyWlLk6GJQsqaUBKTNV-0" />
        <mxCell id="P1i8_6Hr3l8Poc8qeTxI-1" value="«interface»&lt;br&gt;&lt;b&gt;MusicPlayer&lt;/b&gt;&lt;div&gt;&lt;b&gt;&lt;br&gt;&lt;/b&gt;&lt;/div&gt;&lt;div&gt;&lt;b&gt;play();&lt;/b&gt;&lt;/div&gt;&lt;div&gt;&lt;b&gt;pause();&lt;/b&gt;&lt;/div&gt;&lt;div&gt;&lt;b&gt;selectMusic(String music);&lt;/b&gt;&lt;/div&gt;" style="html=1;whiteSpace=wrap;" vertex="1" parent="WIyWlLk6GJQsqaUBKTNV-1">
          <mxGeometry x="100" y="100" width="110" height="120" as="geometry" />
        </mxCell>
        <mxCell id="P1i8_6Hr3l8Poc8qeTxI-2" value="«interface»&lt;br&gt;&lt;b&gt;Phone&lt;/b&gt;&lt;div&gt;&lt;b&gt;&lt;br&gt;&lt;/b&gt;&lt;/div&gt;&lt;div&gt;&lt;b&gt;call(String number)&lt;/b&gt;&lt;/div&gt;&lt;div&gt;&lt;b&gt;answer();&lt;/b&gt;&lt;/div&gt;&lt;div&gt;&lt;b&gt;startVoiceMessage();&lt;/b&gt;&lt;/div&gt;" style="html=1;whiteSpace=wrap;" vertex="1" parent="WIyWlLk6GJQsqaUBKTNV-1">
          <mxGeometry x="260" y="100" width="150" height="120" as="geometry" />
        </mxCell>
        <mxCell id="P1i8_6Hr3l8Poc8qeTxI-3" value="«interface»&lt;br&gt;&lt;b&gt;Browser&lt;/b&gt;&lt;div&gt;&lt;b&gt;&lt;br&gt;&lt;/b&gt;&lt;/div&gt;&lt;div&gt;&lt;b&gt;load(String page)&lt;/b&gt;&lt;/div&gt;&lt;div&gt;&lt;b&gt;newTab()&lt;/b&gt;&lt;/div&gt;&lt;div&gt;&lt;b&gt;refresh()&lt;/b&gt;&lt;/div&gt;" style="html=1;whiteSpace=wrap;" vertex="1" parent="WIyWlLk6GJQsqaUBKTNV-1">
          <mxGeometry x="470" y="100" width="110" height="120" as="geometry" />
        </mxCell>
        <mxCell id="P1i8_6Hr3l8Poc8qeTxI-9" value="" style="endArrow=block;dashed=1;endFill=0;endSize=12;html=1;rounded=0;exitX=0.5;exitY=0;exitDx=0;exitDy=0;entryX=0.5;entryY=1;entryDx=0;entryDy=0;" edge="1" parent="WIyWlLk6GJQsqaUBKTNV-1" source="P1i8_6Hr3l8Poc8qeTxI-4" target="P1i8_6Hr3l8Poc8qeTxI-1">
          <mxGeometry width="160" relative="1" as="geometry">
            <mxPoint x="330" y="390" as="sourcePoint" />
            <mxPoint x="490" y="390" as="targetPoint" />
          </mxGeometry>
        </mxCell>
        <mxCell id="P1i8_6Hr3l8Poc8qeTxI-10" value="" style="endArrow=block;dashed=1;endFill=0;endSize=12;html=1;rounded=0;entryX=0.5;entryY=1;entryDx=0;entryDy=0;exitX=0.5;exitY=0;exitDx=0;exitDy=0;" edge="1" parent="WIyWlLk6GJQsqaUBKTNV-1" source="P1i8_6Hr3l8Poc8qeTxI-4" target="P1i8_6Hr3l8Poc8qeTxI-3">
          <mxGeometry width="160" relative="1" as="geometry">
            <mxPoint x="330" y="340" as="sourcePoint" />
            <mxPoint x="490" y="390" as="targetPoint" />
          </mxGeometry>
        </mxCell>
        <mxCell id="P1i8_6Hr3l8Poc8qeTxI-11" value="" style="endArrow=block;dashed=1;endFill=0;endSize=12;html=1;rounded=0;exitX=0.5;exitY=0;exitDx=0;exitDy=0;" edge="1" parent="WIyWlLk6GJQsqaUBKTNV-1" source="P1i8_6Hr3l8Poc8qeTxI-4" target="P1i8_6Hr3l8Poc8qeTxI-2">
          <mxGeometry width="160" relative="1" as="geometry">
            <mxPoint x="330" y="330" as="sourcePoint" />
            <mxPoint x="490" y="390" as="targetPoint" />
          </mxGeometry>
        </mxCell>
        <mxCell id="P1i8_6Hr3l8Poc8qeTxI-12" value="" style="endArrow=block;dashed=1;endFill=0;endSize=12;html=1;rounded=0;entryX=0.5;entryY=1;entryDx=0;entryDy=0;" edge="1" parent="WIyWlLk6GJQsqaUBKTNV-1" target="P1i8_6Hr3l8Poc8qeTxI-4">
          <mxGeometry width="160" relative="1" as="geometry">
            <mxPoint x="330" y="340" as="sourcePoint" />
            <mxPoint x="525" y="220" as="targetPoint" />
          </mxGeometry>
        </mxCell>
        <mxCell id="P1i8_6Hr3l8Poc8qeTxI-4" value="iPhone" style="rounded=0;whiteSpace=wrap;html=1;" vertex="1" parent="WIyWlLk6GJQsqaUBKTNV-1">
          <mxGeometry x="275" y="340" width="120" height="60" as="geometry" />
        </mxCell>
      </root>
    </mxGraphModel>
  </diagram>
</mxfile>
